<?xml version="1.0" encoding="UTF-8" standalone="no"?>
<!-- Created with Inkscape (http://www.inkscape.org/) -->

<svg
   xmlns:dc="http://purl.org/dc/elements/1.1/"
   xmlns:cc="http://creativecommons.org/ns#"
   xmlns:rdf="http://www.w3.org/1999/02/22-rdf-syntax-ns#"
   xmlns:svg="http://www.w3.org/2000/svg"
   xmlns="http://www.w3.org/2000/svg"
   xmlns:sodipodi="http://sodipodi.sourceforge.net/DTD/sodipodi-0.dtd"
   xmlns:inkscape="http://www.inkscape.org/namespaces/inkscape"
   width="210mm"
   height="297mm"
   viewBox="0 0 210 297"
   version="1.1"
   id="svg8"
   inkscape:version="0.92.3 (2405546, 2018-03-11)"
   sodipodi:docname="logo-esocial-tst-v2.svg">
  <defs
     id="defs2" />
  <sodipodi:namedview
     id="base"
     pagecolor="#ffffff"
     bordercolor="#666666"
     borderopacity="1.0"
     inkscape:pageopacity="0.0"
     inkscape:pageshadow="2"
     inkscape:zoom="0.7"
     inkscape:cx="36.448054"
     inkscape:cy="596.56587"
     inkscape:document-units="mm"
     inkscape:current-layer="layer1"
     showgrid="false"
     inkscape:window-width="1600"
     inkscape:window-height="849"
     inkscape:window-x="0"
     inkscape:window-y="25"
     inkscape:window-maximized="1" />
  <metadata
     id="metadata5">
    <rdf:RDF>
      <cc:Work
         rdf:about="">
        <dc:format>image/svg+xml</dc:format>
        <dc:type
           rdf:resource="http://purl.org/dc/dcmitype/StillImage" />
        <dc:title></dc:title>
      </cc:Work>
    </rdf:RDF>
  </metadata>
  <g
     inkscape:label="Layer 1"
     inkscape:groupmode="layer"
     id="layer1"
     style="display:inline">
    <g
       id="g4545"
       transform="translate(0.52916667,1.0583333)"
       style="display:inline" />
    <g
       id="g840">
      <path
         transform="scale(0.26458333)"
         id="path3717"
         d="M 398.31445 325.36523 C 382.43365 325.36523 209.78025 425.04565 201.83984 438.79883 C 193.89944 452.55201 193.89944 651.91479 201.83984 665.66797 C 209.78025 679.42115 382.43365 779.10352 398.31445 779.10352 C 414.19526 779.10352 586.84866 679.42115 594.78906 665.66797 C 602.72947 651.91479 602.72947 452.55201 594.78906 438.79883 C 586.84866 425.04565 414.19526 325.36523 398.31445 325.36523 z M 398.31445 355.06836 C 412.11601 355.06836 562.16368 441.69986 569.06445 453.65234 C 575.96523 465.60483 575.96523 638.86392 569.06445 650.81641 C 562.16368 662.76889 412.11601 749.39844 398.31445 749.39844 C 384.5129 749.39844 234.46523 662.76889 227.56445 650.81641 C 220.66368 638.86392 220.66368 465.60483 227.56445 453.65234 C 234.46523 441.69986 384.5129 355.06836 398.31445 355.06836 z "
         style="display:inline;fill:#004a7f;fill-opacity:1;stroke-width:0.99999994" />
      <g
         style="display:inline"
         transform="matrix(0.57557211,0,0,0.6403469,42.782217,55.669681)"
         id="g4622">
        <g
           transform="translate(-1.1395381,-0.13638632)"
           id="g4692">
          <path
             id="path4618"
             d="m 79.347656,110.30859 c -1.864379,0.57437 -3.58827,1.51094 -5.340418,2.35277 -2.61824,1.30166 -5.112478,2.84983 -7.418483,4.64878 -5.359804,4.05452 -9.681105,9.55077 -12.048423,15.86296 -1.483221,3.86786 -2.127435,8.03134 -2.021003,12.16659 0.141076,6.12394 1.773898,12.19955 4.643077,17.60627 3.851974,7.21028 10.028989,13.0466 17.172818,16.94937 5.372357,2.9405 11.30313,4.79283 17.342646,5.73713 2.544707,0.4016 5.20221,0.84608 7.776086,0.87136 1.697014,0.0307 3.322004,-0.23983 5.012844,-0.34753 0.44306,-0.26388 0.38816,-0.86837 0.36771,-1.2606 -0.0134,-0.46382 0.0246,-2.11405 -0.47595,-2.01633 -2.07154,-0.1224 -1.06042,0.0177 -3.11232,-0.28486 -3.446569,-0.52968 -6.866312,-1.26574 -10.182341,-2.35339 -7.291929,-2.3532 -14.199794,-6.21326 -19.550377,-11.75241 -3.434493,-3.55684 -6.143844,-7.82364 -7.79624,-12.4895 -1.549527,-4.30233 -2.356428,-8.88625 -2.276921,-13.46178 0.188457,-7.0947 2.838137,-14.03663 7.137265,-19.65288 3.26329,-4.28455 7.512285,-7.75006 12.18011,-10.40447 0.858732,-0.48664 1.71952,-0.9844 2.615076,-1.39234 0.401038,-0.28083 0.531258,-0.41216 0.410718,-0.76037 -0.06072,-0.17536 -4.175584,-0.0441 -4.435874,-0.0187 z"
             style="fill:#004a7f;fill-opacity:1;stroke-width:0.17368163"
             inkscape:connector-curvature="0"
             sodipodi:nodetypes="ccccccccccccccccccccccc" />
          <path
             id="path4614"
             d="m 96.33936,144.25526 c -0.63771,-0.36527 -2.70793,-2.24609 -2.64127,-2.4435 0.0515,-0.15258 0.81145,-1.76239 1.68872,-3.57737 3.94984,-8.17174 8.17414,-14.22303 14.07821,-20.16703 3.25365,-3.27565 5.51164,-5.21731 8.72343,-7.50135 12.01768,-8.5463 26.82873,-13.257237 44.64025,-14.19867 l 2.30128,-0.121634 1.62524,1.500496 c 0.36118,0.333452 0.92756,2.199215 0.21351,2.944558 -0.33172,0.34625 -1.51971,0.11487 -1.51971,0.11487 -29.35329,2.21882 -49.7737,13.91253 -63.35398,36.10514 -0.81649,1.33429 -2.435438,3.47337 -3.172004,4.88104 0,0 -0.679998,2.71451 -1.687476,2.97678 -0.34025,0.0886 -0.8962,-0.51333 -0.8962,-0.51333 z"
             style="fill:#004a7f;fill-opacity:1;stroke-width:0.17368163"
             inkscape:connector-curvature="0"
             sodipodi:nodetypes="sccscscsasssss" />
        </g>
      </g>
    </g>
  </g>
</svg>
