<?xml version="1.0" encoding="UTF-8" standalone="no"?>
<!-- Created with Inkscape (http://www.inkscape.org/) -->

<svg
   xmlns:dc="http://purl.org/dc/elements/1.1/"
   xmlns:cc="http://creativecommons.org/ns#"
   xmlns:rdf="http://www.w3.org/1999/02/22-rdf-syntax-ns#"
   xmlns:svg="http://www.w3.org/2000/svg"
   xmlns="http://www.w3.org/2000/svg"
   xmlns:sodipodi="http://sodipodi.sourceforge.net/DTD/sodipodi-0.dtd"
   xmlns:inkscape="http://www.inkscape.org/namespaces/inkscape"
   width="210mm"
   height="297mm"
   viewBox="0 0 210 297"
   version="1.1"
   id="svg8"
   inkscape:version="0.92.3 (2405546, 2018-03-11)"
   sodipodi:docname="logo-esocial-tst-v4.svg"
   inkscape:export-filename="/home/calimaborges/Development/tst-labs/esocial/docs/assets/images/logo-esocial-tst.png"
   inkscape:export-xdpi="96"
   inkscape:export-ydpi="96">
  <defs
     id="defs2" />
  <sodipodi:namedview
     id="base"
     pagecolor="#ffffff"
     bordercolor="#666666"
     borderopacity="1.0"
     inkscape:pageopacity="0.0"
     inkscape:pageshadow="2"
     inkscape:zoom="0.49497475"
     inkscape:cx="160.6434"
     inkscape:cy="846.26816"
     inkscape:document-units="mm"
     inkscape:current-layer="g3303"
     showgrid="false"
     inkscape:window-width="1600"
     inkscape:window-height="874"
     inkscape:window-x="1600"
     inkscape:window-y="0"
     inkscape:window-maximized="1" />
  <metadata
     id="metadata5">
    <rdf:RDF>
      <cc:Work
         rdf:about="">
        <dc:format>image/svg+xml</dc:format>
        <dc:type
           rdf:resource="http://purl.org/dc/dcmitype/StillImage" />
        <dc:title></dc:title>
      </cc:Work>
    </rdf:RDF>
  </metadata>
  <g
     inkscape:label="Layer 1"
     inkscape:groupmode="layer"
     id="layer1"
     style="display:inline">
    <g
       id="g3291">
      <g
         id="g3303">
        <g
           id="g4545"
           transform="translate(0.52916667,1.0583333)"
           style="display:inline;stroke-width:5;stroke-miterlimit:4;stroke-dasharray:none">
          <path
             transform="scale(-1)"
             style="fill:#0c5d78;fill-opacity:1;stroke-width:5;stroke-miterlimit:4;stroke-dasharray:none"
             d="m -52.874392,-175.06641 c 2.100898,3.63886 2.100898,56.38681 0,60.02567 -2.100899,3.63886 -47.781958,30.012835 -51.983758,30.012835 -4.20179,10e-7 -49.88285,-26.373975 -51.98375,-30.012835 -2.1009,-3.63886 -2.1009,-56.38681 0,-60.02567 2.1009,-3.63886 47.78196,-30.01283 51.98375,-30.01283 4.2018,0 49.882859,26.37397 51.983758,30.01283 z"
             inkscape:randomized="0"
             inkscape:rounded="0.07"
             inkscape:flatsided="true"
             sodipodi:arg2="0"
             sodipodi:arg1="-0.52359878"
             sodipodi:r2="51.983749"
             sodipodi:r1="60.025669"
             sodipodi:cy="-145.05357"
             sodipodi:cx="-104.85815"
             sodipodi:sides="6"
             id="path3717"
             sodipodi:type="star" />
          <path
             transform="matrix(-1.0883815,0,0,-1.0883802,2.7171982,-11.174323)"
             style="fill:#4089a1;fill-opacity:1;stroke-width:4.59398013;stroke-miterlimit:4;stroke-dasharray:none;opacity:1"
             d="m -52.33767,-167.50687 c 1.677565,2.90563 1.677565,45.0248 0,47.93043 -1.677565,2.90563 -38.153841,23.965215 -41.508971,23.965215 -3.355131,0 -39.831409,-21.059585 -41.508969,-23.965215 -1.67757,-2.90563 -1.67757,-45.0248 0,-47.93043 1.67756,-2.90563 38.153838,-23.96522 41.508968,-23.96522 3.35513,0 39.831406,21.05959 41.508972,23.96522 z"
             inkscape:randomized="0"
             inkscape:rounded="0.07"
             inkscape:flatsided="true"
             sodipodi:arg2="0"
             sodipodi:arg1="-0.52359878"
             sodipodi:r2="41.508968"
             sodipodi:r1="47.930431"
             sodipodi:cy="-143.54166"
             sodipodi:cx="-93.846642"
             sodipodi:sides="6"
             id="path3717-3"
             sodipodi:type="star" />
        </g>
        <circle
           style="fill:#ffffff;fill-opacity:1;stroke:#0c5d78;stroke-width:6;stroke-linecap:round;stroke-linejoin:round;stroke-miterlimit:4;stroke-dasharray:none;stroke-opacity:1"
           id="path873"
           cx="106.02232"
           cy="90.81398"
           r="12.380713" />
        <circle
           style="display:inline;fill:#ffffff;fill-opacity:1;stroke:#0c5d78;stroke-width:6;stroke-linecap:round;stroke-linejoin:round;stroke-miterlimit:4;stroke-dasharray:none;stroke-opacity:1"
           id="path873-3"
           cx="55.562508"
           cy="173.85542"
           r="12.380713" />
        <circle
           style="display:inline;fill:#ffffff;fill-opacity:1;stroke:#0c5d78;stroke-width:6;stroke-linecap:round;stroke-linejoin:round;stroke-miterlimit:4;stroke-dasharray:none;stroke-opacity:1"
           id="path873-3-6"
           cx="153.45833"
           cy="174.53571"
           r="12.380713" />
        <g
           style="display:inline;fill:#ffffff"
           transform="matrix(0.57557212,0,0,0.64034691,44.308038,55.812284)"
           id="g4622">
          <g
             transform="translate(-1.1395381,-0.13638632)"
             id="g4692"
             style="fill:#ffffff;stroke-width:2.470778;stroke-miterlimit:4;stroke-dasharray:none;stroke:#0c5d78;stroke-opacity:1">
            <path
               id="path4618"
               d="m 79.347656,110.30859 c -1.864379,0.57437 -3.58827,1.51094 -5.340418,2.35277 -2.61824,1.30166 -5.112478,2.84983 -7.418483,4.64878 -5.359804,4.05452 -9.681105,9.55077 -12.048423,15.86296 -1.483221,3.86786 -2.127435,8.03134 -2.021003,12.16659 0.141076,6.12394 1.773898,12.19955 4.643077,17.60627 3.851974,7.21028 10.028989,13.0466 17.172818,16.94937 5.372357,2.9405 11.30313,4.79283 17.342646,5.73713 2.544707,0.4016 5.20221,0.84608 7.776086,0.87136 1.697014,0.0307 3.322004,-0.23983 5.012844,-0.34753 0.44306,-0.26388 4.98504,-0.86837 4.96459,-1.2606 -0.0134,-0.46382 0.0246,-2.11405 -0.47595,-2.01633 -2.07154,-0.1224 -1.06042,0.0177 -3.11232,-0.28486 -3.44657,-0.52968 -6.866317,-1.26574 -10.182346,-2.35339 -7.291929,-2.3532 -14.199794,-6.21326 -19.550377,-11.75241 -3.434493,-3.55684 -6.143844,-7.82364 -7.79624,-12.4895 -1.549527,-4.30233 -2.356428,-8.88625 -2.276921,-13.46178 0.188457,-7.0947 2.838137,-14.03663 7.137265,-19.65288 3.26329,-4.28455 7.512285,-7.75006 12.18011,-10.40447 0.858732,-0.48664 1.71952,-0.9844 2.615076,-1.39234 0.401038,-0.28083 0.531258,-0.41216 0.410718,-0.76037 -0.06072,-0.17536 -8.772459,-0.0441 -9.032749,-0.0187 z"
               style="fill:#ffffff;fill-opacity:1;stroke:#0c5d78;stroke-width:2.47077799;stroke-miterlimit:4;stroke-dasharray:none;stroke-opacity:1"
               inkscape:connector-curvature="0"
               sodipodi:nodetypes="ccccccccccccccccccccccc" />
            <path
               id="path4614"
               d="m 99.097485,145.908 c -0.63771,-0.36527 -5.466055,-3.89883 -5.399395,-4.09624 0.0515,-0.15258 0.81145,-1.76239 1.68872,-3.57737 3.94984,-8.17174 8.17414,-14.22303 14.07821,-20.16703 3.25365,-3.27565 5.51164,-5.21731 8.72343,-7.50135 12.01768,-8.5463 26.82873,-13.257237 44.64025,-14.19867 l 2.30128,-0.121634 4.38338,3.153246 c 0.40423,0.290791 -0.38218,1.440988 -0.70587,2.118178 -0.15883,0.33228 -0.60033,0.94124 -0.60033,0.94124 -29.35329,2.21882 -50.69308,13.91253 -64.27336,36.10514 -0.81649,1.33429 -1.43173,3.2816 -2.25263,4.88104 -0.51901,1.01123 -0.49212,2.68393 -1.687485,2.97678 -0.341766,0.0837 -0.8962,-0.51333 -0.8962,-0.51333 z"
               style="fill:#ffffff;fill-opacity:1;stroke:#0c5d78;stroke-width:2.47077799;stroke-miterlimit:4;stroke-dasharray:none;stroke-opacity:1"
               inkscape:connector-curvature="0"
               sodipodi:nodetypes="sccscscsassaas" />
          </g>
        </g>
      </g>
    </g>
  </g>
</svg>
