<?xml version="1.0" encoding="UTF-8" standalone="no"?>
<!-- Created with Inkscape (http://www.inkscape.org/) -->

<svg
   xmlns:dc="http://purl.org/dc/elements/1.1/"
   xmlns:cc="http://creativecommons.org/ns#"
   xmlns:rdf="http://www.w3.org/1999/02/22-rdf-syntax-ns#"
   xmlns:svg="http://www.w3.org/2000/svg"
   xmlns="http://www.w3.org/2000/svg"
   xmlns:sodipodi="http://sodipodi.sourceforge.net/DTD/sodipodi-0.dtd"
   xmlns:inkscape="http://www.inkscape.org/namespaces/inkscape"
   width="210mm"
   height="297mm"
   viewBox="0 0 210 297"
   version="1.1"
   id="svg8"
   inkscape:version="0.92.3 (2405546, 2018-03-11)"
   sodipodi:docname="logo-esocial-tst-v1.svg"
   inkscape:export-filename="/home/calimaborges/Development/tst-labs/esocial/docs/assets/images/logo-esocial-tst.png"
   inkscape:export-xdpi="96"
   inkscape:export-ydpi="96">
  <defs
     id="defs2" />
  <sodipodi:namedview
     id="base"
     pagecolor="#ffffff"
     bordercolor="#666666"
     borderopacity="1.0"
     inkscape:pageopacity="0.0"
     inkscape:pageshadow="2"
     inkscape:zoom="0.7"
     inkscape:cx="247.16234"
     inkscape:cy="653.70873"
     inkscape:document-units="mm"
     inkscape:current-layer="g4622"
     showgrid="false"
     inkscape:window-width="1600"
     inkscape:window-height="849"
     inkscape:window-x="0"
     inkscape:window-y="25"
     inkscape:window-maximized="1" />
  <metadata
     id="metadata5">
    <rdf:RDF>
      <cc:Work
         rdf:about="">
        <dc:format>image/svg+xml</dc:format>
        <dc:type
           rdf:resource="http://purl.org/dc/dcmitype/StillImage" />
        <dc:title />
      </cc:Work>
    </rdf:RDF>
  </metadata>
  <g
     inkscape:label="Layer 1"
     inkscape:groupmode="layer"
     id="layer1"
     style="display:inline">
    <g
       id="g4545"
       transform="translate(0.52916667,1.0583333)"
       style="display:inline">
      <path
         transform="scale(-1)"
         style="fill:#007f3c;fill-opacity:1;stroke-width:0.26458332"
         d="m -52.874392,-175.06641 c 2.100898,3.63886 2.100898,56.38681 0,60.02567 -2.100899,3.63886 -47.781958,30.012835 -51.983758,30.012835 -4.20179,10e-7 -49.88285,-26.373975 -51.98375,-30.012835 -2.1009,-3.63886 -2.1009,-56.38681 0,-60.02567 2.1009,-3.63886 47.78196,-30.01283 51.98375,-30.01283 4.2018,0 49.882859,26.37397 51.983758,30.01283 z"
         inkscape:randomized="0"
         inkscape:rounded="0.07"
         inkscape:flatsided="true"
         sodipodi:arg2="0"
         sodipodi:arg1="-0.52359878"
         sodipodi:r2="51.983749"
         sodipodi:r1="60.025669"
         sodipodi:cy="-145.05357"
         sodipodi:cx="-104.85815"
         sodipodi:sides="6"
         id="path3717"
         sodipodi:type="star" />
      <path
         transform="matrix(-1.0883815,0,0,-1.0883802,2.7171982,-11.174323)"
         style="fill:#ffff99;fill-opacity:1;stroke-width:0.2112695"
         d="m -52.33767,-167.50687 c 1.677565,2.90563 1.677565,45.0248 0,47.93043 -1.677565,2.90563 -38.153841,23.965215 -41.508971,23.965215 -3.355131,0 -39.831409,-21.059585 -41.508969,-23.965215 -1.67757,-2.90563 -1.67757,-45.0248 0,-47.93043 1.67756,-2.90563 38.153838,-23.96522 41.508968,-23.96522 3.35513,0 39.831406,21.05959 41.508972,23.96522 z"
         inkscape:randomized="0"
         inkscape:rounded="0.07"
         inkscape:flatsided="true"
         sodipodi:arg2="0"
         sodipodi:arg1="-0.52359878"
         sodipodi:r2="41.508968"
         sodipodi:r1="47.930431"
         sodipodi:cy="-143.54166"
         sodipodi:cx="-93.846642"
         sodipodi:sides="6"
         id="path3717-3"
         sodipodi:type="star" />
    </g>
    <g
       id="g4622"
       transform="matrix(0.57557211,0,0,0.6403469,42.782166,55.669578)"
       style="display:inline">
      <g
         id="g4692"
         transform="translate(-1.1395381,-0.13638632)">
        <path
           sodipodi:nodetypes="ccccccccccccccccccccccc"
           inkscape:connector-curvature="0"
           style="fill:#004a7f;fill-opacity:1;stroke-width:0.17368163"
           d="m 79.347656,110.30859 c -1.864379,0.57437 -3.58827,1.51094 -5.340418,2.35277 -2.61824,1.30166 -5.112478,2.84983 -7.418483,4.64878 -5.359804,4.05452 -9.681105,9.55077 -12.048423,15.86296 -1.483221,3.86786 -2.127435,8.03134 -2.021003,12.16659 0.141076,6.12394 1.773898,12.19955 4.643077,17.60627 3.851974,7.21028 10.028989,13.0466 17.172818,16.94937 5.372357,2.9405 11.30313,4.79283 17.342646,5.73713 2.544707,0.4016 5.20221,0.84608 7.776086,0.87136 1.697014,0.0307 3.322004,-0.23983 5.012844,-0.34753 0.44306,-0.26388 0.38816,-0.86837 0.36771,-1.2606 -0.0134,-0.46382 0.0246,-2.11405 -0.47595,-2.01633 -2.07154,-0.1224 -1.06042,0.0177 -3.11232,-0.28486 -3.446569,-0.52968 -6.866312,-1.26574 -10.182341,-2.35339 -7.291929,-2.3532 -14.199794,-6.21326 -19.550377,-11.75241 -3.434493,-3.55684 -6.143844,-7.82364 -7.79624,-12.4895 -1.549527,-4.30233 -2.356428,-8.88625 -2.276921,-13.46178 0.188457,-7.0947 2.838137,-14.03663 7.137265,-19.65288 3.26329,-4.28455 7.512285,-7.75006 12.18011,-10.40447 0.858732,-0.48664 1.71952,-0.9844 2.615076,-1.39234 0.401038,-0.28083 0.531258,-0.41216 0.410718,-0.76037 -0.06072,-0.17536 -4.175584,-0.0441 -4.435874,-0.0187 z"
           id="path4618" />
        <path
           sodipodi:nodetypes="sccscscsasssss"
           inkscape:connector-curvature="0"
           style="fill:#004a7f;fill-opacity:1;stroke-width:0.17368163"
           d="m 96.33936,144.25526 c -0.63771,-0.36527 -2.70793,-2.24609 -2.64127,-2.4435 0.0515,-0.15258 0.81145,-1.76239 1.68872,-3.57737 3.94984,-8.17174 8.17414,-14.22303 14.07821,-20.16703 3.25365,-3.27565 5.51164,-5.21731 8.72343,-7.50135 12.01768,-8.5463 26.82873,-13.257237 44.64025,-14.19867 l 2.30128,-0.121634 1.62524,1.500496 c 0.36118,0.333452 0.92756,2.199215 0.21351,2.944558 -0.33172,0.34625 -1.51971,0.11487 -1.51971,0.11487 -29.35329,2.21882 -49.7737,13.91253 -63.35398,36.10514 -0.81649,1.33429 -2.435438,3.47337 -3.172004,4.88104 0,0 -0.679998,2.71451 -1.687476,2.97678 -0.34025,0.0886 -0.8962,-0.51333 -0.8962,-0.51333 z"
           id="path4614" />
      </g>
    </g>
  </g>
</svg>
