<?xml version="1.0" standalone="no"?>
<!DOCTYPE svg PUBLIC "-//W3C//DTD SVG 20010904//EN"
 "http://www.w3.org/TR/2001/REC-SVG-20010904/DTD/svg10.dtd">
<svg version="1.0" xmlns="http://www.w3.org/2000/svg"
 width="454.000000pt" height="454.000000pt" viewBox="0 0 454.000000 454.000000"
 preserveAspectRatio="xMidYMid meet">
<metadata>
Created by potrace 1.11, written by Peter Selinger 2001-2013
</metadata>
<g transform="translate(0.000000,454.000000) scale(0.100000,-0.100000)"
fill="#000000" stroke="none">
<path d="M2190 4514 c-59 -24 -370 -179 -485 -242 -38 -21 -99 -54 -135 -74
-409 -223 -980 -572 -1187 -727 -84 -62 -90 -80 -108 -301 -27 -328 -27 -1653
0 -1813 2 -12 7 -51 10 -87 12 -145 24 -159 275 -325 154 -102 642 -398 775
-470 39 -20 75 -41 80 -45 10 -8 71 -42 165 -93 30 -16 69 -38 85 -47 49 -29
215 -116 342 -178 154 -77 251 -115 277 -109 50 12 63 16 101 32 98 42 388
192 608 314 632 352 1196 707 1240 781 45 75 62 386 62 1135 0 560 -8 817 -30
1020 -10 85 -23 119 -62 156 -180 172 -1522 952 -1849 1075 -74 28 -91 28
-164 -2z"/>
</g>
</svg>
